<svg width="23" height="20" viewBox="0 0 23 20" fill="none" xmlns="http://www.w3.org/2000/svg">
<path d="M7.90625 6.875C8.09687 6.875 8.27969 6.94085 8.41448 7.05806C8.54927 7.17527 8.625 7.33424 8.625 7.5V15C8.625 15.1658 8.54927 15.3247 8.41448 15.4419C8.27969 15.5592 8.09687 15.625 7.90625 15.625C7.71563 15.625 7.53281 15.5592 7.39802 15.4419C7.26323 15.3247 7.1875 15.1658 7.1875 15V7.5C7.1875 7.33424 7.26323 7.17527 7.39802 7.05806C7.53281 6.94085 7.71563 6.875 7.90625 6.875V6.875ZM11.5 6.875C11.6906 6.875 11.8734 6.94085 12.0082 7.05806C12.143 7.17527 12.2188 7.33424 12.2188 7.5V15C12.2188 15.1658 12.143 15.3247 12.0082 15.4419C11.8734 15.5592 11.6906 15.625 11.5 15.625C11.3094 15.625 11.1266 15.5592 10.9918 15.4419C10.857 15.3247 10.7812 15.1658 10.7812 15V7.5C10.7812 7.33424 10.857 7.17527 10.9918 7.05806C11.1266 6.94085 11.3094 6.875 11.5 6.875V6.875ZM15.8125 7.5C15.8125 7.33424 15.7368 7.17527 15.602 7.05806C15.4672 6.94085 15.2844 6.875 15.0938 6.875C14.9031 6.875 14.7203 6.94085 14.5855 7.05806C14.4507 7.17527 14.375 7.33424 14.375 7.5V15C14.375 15.1658 14.4507 15.3247 14.5855 15.4419C14.7203 15.5592 14.9031 15.625 15.0938 15.625C15.2844 15.625 15.4672 15.5592 15.602 15.4419C15.7368 15.3247 15.8125 15.1658 15.8125 15V7.5Z" fill="#F90000"/>
<path fill-rule="evenodd" clip-rule="evenodd" d="M20.8438 3.75C20.8438 4.08152 20.6923 4.39946 20.4227 4.63388C20.1531 4.8683 19.7875 5 19.4062 5H18.6875V16.25C18.6875 16.913 18.3846 17.5489 17.8454 18.0178C17.3063 18.4866 16.575 18.75 15.8125 18.75H7.1875C6.425 18.75 5.69373 18.4866 5.15457 18.0178C4.6154 17.5489 4.3125 16.913 4.3125 16.25V5H3.59375C3.2125 5 2.84687 4.8683 2.57728 4.63388C2.3077 4.39946 2.15625 4.08152 2.15625 3.75V2.5C2.15625 2.16848 2.3077 1.85054 2.57728 1.61612C2.84687 1.3817 3.2125 1.25 3.59375 1.25H8.625C8.625 0.918479 8.77645 0.600537 9.04603 0.366117C9.31562 0.131696 9.68125 0 10.0625 0L12.9375 0C13.3187 0 13.6844 0.131696 13.954 0.366117C14.2235 0.600537 14.375 0.918479 14.375 1.25H19.4062C19.7875 1.25 20.1531 1.3817 20.4227 1.61612C20.6923 1.85054 20.8438 2.16848 20.8438 2.5V3.75ZM5.91963 5L5.75 5.07375V16.25C5.75 16.5815 5.90145 16.8995 6.17103 17.1339C6.44062 17.3683 6.80625 17.5 7.1875 17.5H15.8125C16.1937 17.5 16.5594 17.3683 16.829 17.1339C17.0985 16.8995 17.25 16.5815 17.25 16.25V5.07375L17.0804 5H5.91963ZM3.59375 3.75V2.5H19.4062V3.75H3.59375Z" fill="#F90000"/>
</svg>
